<svg xmlns="http://www.w3.org/2000/svg"  viewBox="0 0 40 40" width="40px" height="40px"><path fill="#ffeea3" d="M20 31.99L8.301 38.088 10.496 25.092 1.069 15.861 14.125 13.93 20 2.122 25.878 13.93 38.931 15.861 29.507 25.092 31.7 38.091z"/><path fill="#ba9b48" d="M20,3.245l5.313,10.675l0.233,0.467l0.516,0.076l11.799,1.746l-8.518,8.344l-0.373,0.366 l0.087,0.515l1.982,11.75l-10.577-5.517L20,31.425l-0.462,0.241L8.961,37.181l1.985-11.747l0.087-0.515l-0.373-0.366l-8.521-8.344 l11.802-1.746l0.516-0.076l0.233-0.467L20,3.245 M20,1l-6.206,12.474L0,15.514l9.96,9.753l-2.32,13.73L20,32.553L32.36,39 l-2.317-13.733L40,15.514l-13.791-2.04L20,1L20,1z"/></svg>